<svg width="22" height="22" viewBox="0 0 22 22" fill="none" xmlns="http://www.w3.org/2000/svg">
<g id="Frame" clip-path="url(#clip0_50_238)">
<path id="Vector" d="M10.9997 7.33301C8.97463 7.33301 7.33301 8.97463 7.33301 10.9997C7.33301 13.0247 8.97463 14.6663 10.9997 14.6663C13.0247 14.6663 14.6663 13.0247 14.6663 10.9997C14.6663 8.97463 13.0247 7.33301 10.9997 7.33301Z" fill="white"/>
<path id="Vector_2" fill-rule="evenodd" clip-rule="evenodd" d="M6.6 0C2.95492 0 0 2.95492 0 6.6V15.4C0 19.0451 2.95492 22 6.6 22H15.4C19.0451 22 22 19.0451 22 15.4V6.6C22 2.95492 19.0451 0 15.4 0H6.6ZM5.86667 11C5.86667 8.16493 8.16493 5.86667 11 5.86667C13.8351 5.86667 16.1333 8.16493 16.1333 11C16.1333 13.8351 13.8351 16.1333 11 16.1333C8.16493 16.1333 5.86667 13.8351 5.86667 11ZM16.1333 5.86667H17.6V4.4H16.1333V5.86667Z" fill="#622E92"/>
</g>
<defs>
<clipPath id="clip0_50_238">
<rect width="22" height="22" fill="white"/>
</clipPath>
</defs>
</svg>
