<svg width="31" height="31" viewBox="0 0 31 31" fill="none" xmlns="http://www.w3.org/2000/svg">
<g id="Frame" clip-path="url(#clip0_50_233)">
<g id="Group">
<path id="Vector" d="M4.00441 26L5.49161 20.5352C4.51167 18.8553 3.99682 16.9448 4.00001 15C4.00001 8.9247 8.92471 4 15 4C21.0753 4 26 8.9247 26 15C26 21.0753 21.0753 26 15 26C13.0561 26.0031 11.1463 25.4887 9.46701 24.5095L4.00441 26ZM11.0301 9.8388C10.8881 9.84762 10.7493 9.88503 10.622 9.9488C10.5027 10.0164 10.3938 10.1008 10.2986 10.1996C10.1666 10.3239 10.0918 10.4317 10.0115 10.5362C9.60496 11.0653 9.38628 11.7148 9.39001 12.382C9.39221 12.921 9.53301 13.4457 9.75301 13.9363C10.2029 14.9285 10.9432 15.979 11.9211 16.9525C12.1565 17.1868 12.3864 17.4222 12.6339 17.6411C13.8476 18.7097 15.294 19.4803 16.8579 19.8917L17.4838 19.9874C17.6873 19.9984 17.8908 19.983 18.0954 19.9731C18.4158 19.9566 18.7286 19.8698 19.0117 19.719C19.1943 19.6222 19.2801 19.5738 19.433 19.477C19.433 19.477 19.4803 19.4462 19.5705 19.378C19.719 19.268 19.8103 19.1899 19.9335 19.0612C20.0248 18.9666 20.104 18.8555 20.1645 18.729C20.2503 18.5497 20.3361 18.2076 20.3713 17.9227C20.3977 17.7049 20.39 17.5861 20.3867 17.5124C20.3823 17.3947 20.2844 17.2726 20.1777 17.2209L19.5375 16.9338C19.5375 16.9338 18.5805 16.5169 17.9964 16.2507C17.9348 16.2238 17.8688 16.2086 17.8017 16.2056C17.7264 16.1979 17.6504 16.2063 17.5787 16.2304C17.507 16.2545 17.4412 16.2937 17.3859 16.3453V16.3431C17.3804 16.3431 17.3067 16.4058 16.5114 17.3694C16.4658 17.4307 16.4029 17.4771 16.3308 17.5026C16.2587 17.528 16.1807 17.5314 16.1066 17.5124C16.0349 17.4932 15.9647 17.469 15.8965 17.4398C15.7601 17.3826 15.7128 17.3606 15.6193 17.3199L15.6138 17.3177C14.9845 17.0429 14.4019 16.6718 13.8868 16.2177C13.7482 16.0967 13.6195 15.9647 13.4875 15.8371C13.0547 15.4227 12.6776 14.9538 12.3655 14.4423L12.3006 14.3378C12.254 14.2676 12.2163 14.1918 12.1884 14.1123C12.1466 13.9506 12.2555 13.8208 12.2555 13.8208C12.2555 13.8208 12.5228 13.5282 12.6471 13.3698C12.7506 13.2381 12.8472 13.1012 12.9364 12.9595C13.0662 12.7505 13.1069 12.536 13.0387 12.3699C12.7307 11.6175 12.4117 10.8684 12.0839 10.1248C12.019 9.9774 11.8265 9.8718 11.6516 9.8509C11.5922 9.8443 11.5328 9.8377 11.4734 9.8333C11.3257 9.82596 11.1777 9.82853 11.0301 9.8388Z" fill="#622E92"/>
</g>
</g>
<defs>
<clipPath id="clip0_50_233">
<rect width="29.9221" height="29.9221" fill="white" transform="translate(0.75293 0.350586)"/>
</clipPath>
</defs>
</svg>
