<svg width="30" height="31" viewBox="0 0 30 31" fill="none" xmlns="http://www.w3.org/2000/svg">
<g id="Frame" clip-path="url(#clip0_50_230)">
<path id="Vector" d="M29.1404 8.85763C29.1404 6.27957 27.2441 4.20567 24.9009 4.20567C21.7271 4.05729 18.4902 4 15.1822 4H14.151C10.8511 4 7.60848 4.05729 4.4346 4.20624C2.09717 4.20624 0.200864 6.2916 0.200864 8.86966C0.0576385 10.9086 -0.00308902 12.9481 0.000348386 14.9877C-0.00538063 17.0272 0.0595482 19.0686 0.195135 21.112C0.195135 23.69 2.09144 25.7811 4.42887 25.7811C7.76316 25.9358 11.1834 26.0046 14.6609 25.9988C18.1441 26.0103 21.5548 25.9377 24.8929 25.7811C27.2361 25.7811 29.1324 23.69 29.1324 21.112C29.2699 19.0667 29.3329 17.0272 29.3272 14.9819C29.3401 12.9424 29.2779 10.901 29.1404 8.85763ZM11.8594 20.6078V9.35032L20.1665 14.9762L11.8594 20.6078Z" fill="#622E92"/>
</g>
<defs>
<clipPath id="clip0_50_230">
<rect width="29.9221" height="29.9221" fill="white" transform="translate(0.0517578 0.350586)"/>
</clipPath>
</defs>
</svg>
